<svg width="20" height="30" viewBox="0 0 20 30" fill="none" xmlns="http://www.w3.org/2000/svg">
<path d="M10.0002 14.2917C9.06086 14.2917 8.16002 13.9186 7.49583 13.2544C6.83164 12.5902 6.4585 11.6894 6.4585 10.75C6.4585 9.81073 6.83164 8.9099 7.49583 8.2457C8.16002 7.58151 9.06086 7.20837 10.0002 7.20837C10.9395 7.20837 11.8403 7.58151 12.5045 8.2457C13.1687 8.9099 13.5418 9.81073 13.5418 10.75C13.5418 11.2151 13.4502 11.6757 13.2722 12.1054C13.0943 12.5351 12.8334 12.9255 12.5045 13.2544C12.1756 13.5833 11.7852 13.8441 11.3555 14.0221C10.9258 14.2001 10.4653 14.2917 10.0002 14.2917ZM10.0002 0.833374C7.3701 0.833374 4.84776 1.87816 2.98802 3.7379C1.12828 5.59763 0.0834961 8.11998 0.0834961 10.75C0.0834961 18.1875 10.0002 29.1667 10.0002 29.1667C10.0002 29.1667 19.9168 18.1875 19.9168 10.75C19.9168 8.11998 18.872 5.59763 17.0123 3.7379C15.1526 1.87816 12.6302 0.833374 10.0002 0.833374Z" fill="white"/>
</svg>
