<svg width="22" height="22" viewBox="0 0 22 22" fill="none" xmlns="http://www.w3.org/2000/svg">
<path d="M7.15016 1.83337H14.8502C17.7835 1.83337 20.1668 4.21671 20.1668 7.15004V14.85C20.1668 16.2601 19.6067 17.6124 18.6096 18.6095C17.6125 19.6066 16.2602 20.1667 14.8502 20.1667H7.15016C4.21683 20.1667 1.8335 17.7834 1.8335 14.85V7.15004C1.8335 5.73997 2.39364 4.38766 3.39071 3.39059C4.38778 2.39352 5.7401 1.83337 7.15016 1.83337ZM6.96683 3.66671C6.09162 3.66671 5.25225 4.01438 4.63338 4.63326C4.01451 5.25213 3.66683 6.09149 3.66683 6.96671V15.0334C3.66683 16.8575 5.14266 18.3334 6.96683 18.3334H15.0335C15.9087 18.3334 16.7481 17.9857 17.367 17.3668C17.9858 16.748 18.3335 15.9086 18.3335 15.0334V6.96671C18.3335 5.14254 16.8577 3.66671 15.0335 3.66671H6.96683ZM15.8127 5.04171C16.1166 5.04171 16.408 5.16243 16.6229 5.37731C16.8378 5.5922 16.9585 5.88365 16.9585 6.18754C16.9585 6.49143 16.8378 6.78288 16.6229 6.99777C16.408 7.21265 16.1166 7.33337 15.8127 7.33337C15.5088 7.33337 15.2173 7.21265 15.0024 6.99777C14.7875 6.78288 14.6668 6.49143 14.6668 6.18754C14.6668 5.88365 14.7875 5.5922 15.0024 5.37731C15.2173 5.16243 15.5088 5.04171 15.8127 5.04171ZM11.0002 6.41671C12.2157 6.41671 13.3815 6.89959 14.2411 7.75913C15.1006 8.61868 15.5835 9.78447 15.5835 11C15.5835 12.2156 15.1006 13.3814 14.2411 14.2409C13.3815 15.1005 12.2157 15.5834 11.0002 15.5834C9.78459 15.5834 8.6188 15.1005 7.75926 14.2409C6.89971 13.3814 6.41683 12.2156 6.41683 11C6.41683 9.78447 6.89971 8.61868 7.75926 7.75913C8.6188 6.89959 9.78459 6.41671 11.0002 6.41671ZM11.0002 8.25004C10.2708 8.25004 9.57134 8.53977 9.05562 9.0555C8.53989 9.57122 8.25016 10.2707 8.25016 11C8.25016 11.7294 8.53989 12.4289 9.05562 12.9446C9.57134 13.4603 10.2708 13.75 11.0002 13.75C11.7295 13.75 12.429 13.4603 12.9447 12.9446C13.4604 12.4289 13.7502 11.7294 13.7502 11C13.7502 10.2707 13.4604 9.57122 12.9447 9.0555C12.429 8.53977 11.7295 8.25004 11.0002 8.25004Z" fill="white"/>
</svg>
