<svg width="22" height="22" viewBox="0 0 22 22" fill="none" xmlns="http://www.w3.org/2000/svg">
<g clip-path="url(#clip0_729_144)">
<path fill-rule="evenodd" clip-rule="evenodd" d="M21.4958 5.45237C21.648 4.95187 21.4958 4.58337 20.7671 4.58337H18.3608C17.7485 4.58337 17.4662 4.90146 17.3131 5.25254C17.3131 5.25254 16.0893 8.18221 14.3559 10.0852C13.7949 10.637 13.5401 10.8121 13.2339 10.8121C13.0808 10.8121 12.8507 10.637 12.8507 10.1356V5.45237C12.8507 4.85104 12.6821 4.58337 12.1724 4.58337H8.38842C8.00617 4.58337 7.77608 4.86204 7.77608 5.12696C7.77608 5.69621 8.64325 5.82821 8.73217 7.43054V10.912C8.73217 11.6756 8.59192 11.814 8.28575 11.814C7.46992 11.814 5.48533 8.87062 4.30742 5.50279C4.07917 4.84737 3.84817 4.58337 3.23308 4.58337H0.825C0.1375 4.58337 0 4.90146 0 5.25254C0 5.87771 0.815833 8.98338 3.79958 13.091C5.78875 15.896 8.58917 17.4167 11.1403 17.4167C12.6702 17.4167 12.859 17.0794 12.859 16.4973V14.377C12.859 13.7015 13.0038 13.5667 13.4888 13.5667C13.8463 13.5667 14.4577 13.7427 15.8858 15.0948C17.5175 16.698 17.7861 17.4167 18.7046 17.4167H21.1108C21.7983 17.4167 22.143 17.0794 21.945 16.412C21.7268 15.7484 20.9477 14.785 19.9146 13.6419C19.3536 12.991 18.5121 12.2898 18.2563 11.9387C17.8998 11.4886 18.0015 11.2879 18.2563 10.8873C18.2563 10.8873 21.1897 6.83012 21.4949 5.45237H21.4958Z" fill="white"/>
</g>
<defs>
<clipPath id="clip0_729_144">
<rect width="22" height="22" fill="white"/>
</clipPath>
</defs>
</svg>
