<svg width="17" height="18" viewBox="0 0 17 18" fill="none" xmlns="http://www.w3.org/2000/svg">
<g clip-path="url(#clip0_729_149)">
<path d="M9.5625 0.5H11.6663C11.8193 1.25969 12.24 2.21806 12.9784 3.169C13.7009 4.10081 14.6593 4.75 15.9375 4.75V6.875C14.0749 6.875 12.6756 6.01013 11.6875 4.93169V12.1875C11.6875 13.2382 11.3759 14.2653 10.7922 15.139C10.2084 16.0126 9.37874 16.6935 8.40801 17.0956C7.43728 17.4977 6.36911 17.6029 5.33859 17.3979C4.30806 17.1929 3.36146 16.687 2.6185 15.944C1.87553 15.201 1.36956 14.2544 1.16458 13.2239C0.959597 12.1934 1.0648 11.1252 1.46689 10.1545C1.86898 9.18376 2.5499 8.35406 3.42354 7.77032C4.29717 7.18657 5.32429 6.875 6.375 6.875V9C5.74457 9 5.1283 9.18694 4.60412 9.53719C4.07994 9.88744 3.67139 10.3853 3.43014 10.9677C3.18888 11.5501 3.12576 12.191 3.24875 12.8094C3.37174 13.4277 3.67532 13.9956 4.1211 14.4414C4.56688 14.8872 5.13484 15.1908 5.75315 15.3138C6.37147 15.4367 7.01237 15.3736 7.59481 15.1324C8.17725 14.8911 8.67506 14.4826 9.02531 13.9584C9.37556 13.4342 9.5625 12.8179 9.5625 12.1875V0.5Z" fill="white"/>
</g>
<defs>
<clipPath id="clip0_729_149">
<rect width="17" height="17" fill="white" transform="translate(0 0.5)"/>
</clipPath>
</defs>
</svg>
